<?xml version="1.0" standalone="no"?>
<!DOCTYPE svg PUBLIC "-//W3C//DTD SVG 1.1//EN" "http://www.w3.org/Graphics/SVG/1.1/DTD/svg11.dtd" >
<svg>
<metadata>
Created by FontForge 20090622 at Thu Mar 24 08:38:47 2016
 By deploy user
Copyright (c) 2011 by Grilli Type. All rights reserved.
</metadata>
<defs>
<font id="GTWalsheimTrial-Light" horiz-adv-x="570" >
  <font-face 
    font-family="GT Walsheim Trial"
    font-weight="300"
    font-stretch="normal"
    units-per-em="1000"
    panose-1="2 0 5 3 2 0 0 2 0 3"
    ascent="750"
    descent="-250"
    x-height="443"
    cap-height="700"
    bbox="-11 -268 939 715"
    underline-thickness="50"
    underline-position="-50"
    unicode-range="U+0020-U+007A"
  />
<missing-glyph horiz-adv-x="255" 
 />
    <glyph glyph-name=".notdef" horiz-adv-x="255" 
 />
    <glyph glyph-name=".null" horiz-adv-x="0" 
 />
    <glyph glyph-name="nonmarkingreturn" horiz-adv-x="333" 
 />
    <glyph glyph-name="space" unicode=" " horiz-adv-x="255" 
 />
    <glyph glyph-name="comma" unicode="," horiz-adv-x="250" 
d="M55 54q0 25 17.5 42.5t45.5 17.5q33 0 55 -26t22 -78q0 -64 -35.5 -95t-97.5 -31v35q55 0 71 42q8 22 6 43q-7 -9 -26 -9q-25 0 -41.5 17t-16.5 42z" />
    <glyph glyph-name="hyphen" unicode="-" horiz-adv-x="294" 
d="M264 314v-58h-234v58h234z" />
    <glyph glyph-name="period" unicode="." horiz-adv-x="229" 
d="M55 55q0 25 17 42.5t42 17.5t42.5 -17.5t17.5 -42.5t-17.5 -42.5t-42.5 -17.5t-42 17.5t-17 42.5z" />
    <glyph glyph-name="zero" unicode="0" 
d="M52 219v262q0 97 65 164.5t168 67.5t168 -67.5t65 -164.5v-262q0 -97 -65 -164.5t-168 -67.5t-168 67.5t-65 164.5zM450 219v262q0 71 -46 120.5t-120 49.5q-73 0 -118.5 -49.5t-45.5 -120.5v-262q0 -71 45.5 -120.5t118.5 -49.5q74 0 120 49.5t46 120.5z" />
    <glyph glyph-name="one" unicode="1" 
d="M140 529v55q88 0 116 25t28 91h65v-700h-70v529h-139z" />
    <glyph glyph-name="two" unicode="2" 
d="M78 0q0 82 12.5 139t41 95.5t63 62.5t90.5 48q39 17 60.5 28.5t48 31.5t38.5 47.5t12 62.5q0 62 -38 98t-104 36q-73 0 -115 -42.5t-42 -114.5h-68q0 98 62.5 158.5t162.5 60.5q94 0 151.5 -53t57.5 -142q0 -48 -16.5 -85t-49.5 -64t-58 -41.5t-67 -33.5
q-100 -46 -133 -92.5t-33 -137.5h360v-62h-436z" />
    <glyph glyph-name="three" unicode="3" 
d="M50 208h67q0 -71 46.5 -114t120.5 -43q72 0 115 40t43 103q0 61 -41 100t-118 39h-53v61h53q71 0 108.5 35t37.5 93q0 60 -39.5 93.5t-106.5 33.5q-71 0 -110 -37.5t-39 -101.5h-68q0 90 59.5 145.5t155.5 55.5q93 0 154 -52.5t61 -136.5q0 -60 -32.5 -102.5t-89.5 -56.5
q63 -14 99.5 -59.5t36.5 -111.5q0 -89 -64.5 -146t-163.5 -57q-100 0 -166 60t-66 159z" />
    <glyph glyph-name="four" unicode="4" 
d="M339 0v240h-266v460h68v-398h198v221h68v-221h114v-62h-114v-240h-68z" />
    <glyph glyph-name="five" unicode="5" 
d="M70 298v402h399v-61h-338v-275q22 41 67.5 63.5t100.5 22.5q99 0 159.5 -65.5t60.5 -161.5q0 -99 -64.5 -166.5t-168.5 -67.5t-168 67.5t-64 164.5h67q0 -71 45.5 -120.5t119.5 -49.5t120 49.5t46 121.5q0 71 -46.5 119t-121.5 48q-102 0 -144 -91h-70z" />
    <glyph glyph-name="six" unicode="6" 
d="M285 -11q-103 0 -168 67.5t-65 164.5q0 70 39 133l216 346h78l-173 -270q23 23 78 23q99 0 163.5 -68t64.5 -164t-65 -164t-168 -68zM284 51q74 0 120 49.5t46 120.5q0 72 -46 121.5t-120 49.5q-73 0 -118.5 -49.5t-45.5 -121.5q0 -71 45.5 -120.5t118.5 -49.5z" />
    <glyph glyph-name="seven" unicode="7" 
d="M95 700h421l-324 -700h-72l298 639h-323v61z" />
    <glyph glyph-name="eight" unicode="8" 
d="M279 -11q-104 0 -167 57.5t-63 145.5q0 62 33.5 110t96.5 62q-58 16 -87.5 58.5t-29.5 98.5q0 82 59 136t158 54q98 0 157.5 -54t59.5 -136q0 -56 -29.5 -98.5t-87.5 -58.5q63 -14 96.5 -62t33.5 -110q0 -87 -63 -145t-167 -58zM279 388q69 0 109 36.5t40 93.5t-40.5 94
t-108.5 37q-67 0 -107.5 -37t-40.5 -94t40 -93.5t108 -36.5zM279 51q74 0 118.5 40t44.5 101q0 60 -44 100t-119 40t-119 -39.5t-44 -100.5t44.5 -101t118.5 -40z" />
    <glyph glyph-name="nine" unicode="9" 
d="M285 711q103 0 168 -67.5t65 -163.5q0 -70 -39 -133l-216 -347h-78l173 270q-21 -23 -79 -23q-97 0 -162 68.5t-65 163.5q0 96 65 164t168 68zM286 649q-74 0 -120 -49.5t-46 -120.5t46 -120.5t120 -49.5q73 0 118.5 49.5t45.5 120.5t-45.5 120.5t-118.5 49.5z" />
    <glyph glyph-name="A" unicode="A" horiz-adv-x="546" 
d="M540 0h-71l-43 126h-306l-42 -126h-71l241 700h51zM405 187l-132 406l-132 -406h264z" />
    <glyph glyph-name="B" unicode="B" horiz-adv-x="583" 
d="M83 0v700h239q69 0 116 -30t66 -71t19 -88q0 -63 -34.5 -106t-85.5 -53q50 -11 87.5 -54t37.5 -107q0 -46 -19 -87.5t-67 -72.5t-117 -31h-242zM329 322h-178v-260h174q64 0 99.5 39t35.5 90q0 50 -35.5 90.5t-95.5 40.5zM151 383h174q62 0 96.5 39t34.5 89
q0 51 -35 89.5t-99 38.5h-171v-256z" />
    <glyph glyph-name="C" unicode="C" horiz-adv-x="775" 
d="M659 206h74q-30 -97 -117 -159t-210 -62q-163 0 -263 106.5t-100 259.5q0 96 41 178t125 134t195 52q131 0 219 -69.5t110 -180.5h-70q-20 83 -87 136t-170 53q-135 0 -214.5 -89t-79.5 -214q0 -127 82.5 -215.5t214.5 -88.5q93 0 159 45t91 114z" />
    <glyph glyph-name="D" unicode="D" horiz-adv-x="694" 
d="M83 700h205q84 0 154 -29.5t115 -79t69.5 -112t24.5 -129.5t-24.5 -129.5t-69.5 -112t-115 -79t-154 -29.5h-205v700zM288 639h-137v-577h137q134 0 214 86t80 202t-80 202.5t-214 86.5z" />
    <glyph glyph-name="E" unicode="E" horiz-adv-x="543" 
d="M465 639h-314v-260h314v-62h-314v-255h314v-62h-382v700h382v-61z" />
    <glyph glyph-name="F" unicode="F" horiz-adv-x="538" 
d="M465 639h-314v-278h314v-61h-314v-300h-68v700h382v-61z" />
    <glyph glyph-name="G" unicode="G" horiz-adv-x="833" 
d="M463 262v62h342v-62h-74q-17 -127 -102 -202t-223 -75q-86 0 -156 30.5t-114.5 81t-68.5 115t-24 135.5q0 151 98.5 259.5t257.5 108.5q113 0 193 -56t98 -140h-69q-18 59 -78 97t-143 38q-129 0 -208.5 -90.5t-79.5 -215.5q0 -124 78.5 -212.5t217.5 -88.5q110 0 175 58
t77 157h-197z" />
    <glyph glyph-name="H" unicode="H" horiz-adv-x="663" 
d="M512 0v317h-361v-317h-68v700h68v-321h361v321h68v-700h-68z" />
    <glyph glyph-name="I" unicode="I" horiz-adv-x="236" 
d="M83 0v700h70v-700h-70z" />
    <glyph glyph-name="J" unicode="J" horiz-adv-x="536" 
d="M463 700v-484q0 -103 -60 -167t-159 -64q-100 0 -164 65t-64 167h68q0 -77 44.5 -123.5t115.5 -46.5q69 0 110 45.5t41 123.5v484h68z" />
    <glyph glyph-name="K" unicode="K" horiz-adv-x="573" 
d="M478 0l-327 329v-329h-68v700h68v-329l327 329h87l-345 -350l345 -350h-87z" />
    <glyph glyph-name="L" unicode="L" horiz-adv-x="422" 
d="M151 62h241v-62h-309v700h68v-638z" />
    <glyph glyph-name="M" unicode="M" horiz-adv-x="810" 
d="M727 700v-700h-67v543l-228 -543h-54l-227 543v-543h-68v700h66l256 -598l257 598h65z" />
    <glyph glyph-name="N" unicode="N" horiz-adv-x="662" 
d="M158 700l353 -583v583h68v-700h-75l-353 584v-584h-68v700h75z" />
    <glyph glyph-name="O" unicode="O" horiz-adv-x="806" 
d="M403 -15q-108 0 -191.5 52t-126 134.5t-42.5 178.5t42.5 178.5t126 134.5t191.5 52t191.5 -52t126 -134.5t42.5 -178.5t-42.5 -178.5t-126 -134.5t-191.5 -52zM403 47q130 0 210 90t80 213t-80 213.5t-210 90.5t-209.5 -90t-79.5 -214t79.5 -213.5t209.5 -89.5z" />
    <glyph glyph-name="P" unicode="P" horiz-adv-x="596" 
d="M83 0v700h241q104 0 169 -67.5t65 -164.5q0 -96 -65 -163.5t-169 -67.5h-173v-237h-68zM324 298q74 0 120 49.5t46 120.5q0 72 -46 121.5t-120 49.5h-173v-341h173z" />
    <glyph glyph-name="Q" unicode="Q" horiz-adv-x="806" 
d="M763 348q0 -134 -80 -232t-207 -121l63 -89q-38 -20 -59 -30l-78 109q-162 1 -260.5 108.5t-98.5 256.5q0 96 42.5 178.5t126 134.5t191.5 52t191.5 -52t126 -135t42.5 -180zM403 47q130 0 210 90t80 213t-80 213.5t-210 90.5t-209.5 -90t-79.5 -214t79.5 -213.5
t209.5 -89.5z" />
    <glyph glyph-name="R" unicode="R" horiz-adv-x="602" 
d="M83 0v700h241q104 0 169 -67.5t65 -164.5q0 -78 -44.5 -138.5t-119.5 -82.5l157 -247h-78l-150 237h-172v-237h-68zM324 298q74 0 120 49.5t46 120.5q0 72 -46 121.5t-120 49.5h-173v-341h173z" />
    <glyph glyph-name="S" unicode="S" horiz-adv-x="572" 
d="M47 217h68q0 -77 48.5 -123.5t133.5 -46.5q73 0 117 35.5t44 99.5q0 34 -12.5 59t-39 40.5t-47 23.5t-57.5 18q-44 12 -70.5 21t-60.5 25.5t-52 36t-31.5 49.5t-13.5 69q0 91 60.5 141t155.5 50q99 0 158.5 -55.5t61.5 -154.5h-67q-2 72 -42 110.5t-111 38.5
q-66 0 -107.5 -33t-41.5 -92q0 -32 11.5 -55t38 -38.5t47.5 -23.5t60 -19l47.5 -14t45 -15.5t43.5 -20.5t35.5 -26t30 -33.5t18 -42.5t7.5 -54q0 -95 -64.5 -148.5t-165.5 -53.5q-111 0 -179.5 63.5t-68.5 168.5z" />
    <glyph glyph-name="T" unicode="T" horiz-adv-x="474" 
d="M203 0v639h-189v61h446v-61h-190v-639h-67z" />
    <glyph glyph-name="U" unicode="U" horiz-adv-x="618" 
d="M73 220v480h68v-480q0 -72 46.5 -122.5t121.5 -50.5t121.5 50.5t46.5 122.5v480h68v-480q0 -98 -65.5 -166.5t-170.5 -68.5t-170.5 68.5t-65.5 166.5z" />
    <glyph glyph-name="V" unicode="V" horiz-adv-x="557" 
d="M552 700l-248 -700h-51l-248 700h71l203 -591l202 591h71z" />
    <glyph glyph-name="W" unicode="W" horiz-adv-x="945" 
d="M650 0l-177 585l-178 -585h-52l-237 700h71l191 -586l178 586h53l178 -586l191 586h71l-237 -700h-52z" />
    <glyph glyph-name="X" unicode="X" horiz-adv-x="534" 
d="M267 408l180 292h76l-218 -350l218 -350h-76l-180 291l-179 -291h-77l218 350l-218 350h77z" />
    <glyph glyph-name="Y" unicode="Y" horiz-adv-x="565" 
d="M566 700l-357 -700h-75l142 277l-267 423h78l223 -353l182 353h74z" />
    <glyph glyph-name="Z" unicode="Z" horiz-adv-x="552" 
d="M37 639v61h508l-415 -638h424v-62h-538l414 639h-393z" />
    <glyph glyph-name="a" unicode="a" horiz-adv-x="592" 
d="M444 443h65v-443h-65v94q-22 -47 -67.5 -76t-107.5 -29q-97 0 -161.5 68t-64.5 164t64 164t161 68q60 0 106.5 -27.5t69.5 -77.5v95zM276 48q75 0 121.5 50.5t46.5 122.5q0 73 -47 123.5t-121 50.5q-75 0 -121.5 -50.5t-46.5 -123.5q0 -72 46.5 -122.5t121.5 -50.5z" />
    <glyph glyph-name="b" unicode="b" horiz-adv-x="593" 
d="M148 94v-94h-65v700h65v-352q23 50 69.5 77.5t106.5 27.5q97 0 161 -68t64 -164t-64.5 -164t-161.5 -68q-62 0 -107.5 29t-67.5 76zM316 48q75 0 121.5 50.5t46.5 122.5q0 73 -46.5 123.5t-121.5 50.5q-74 0 -121 -50.5t-47 -123.5q0 -72 46.5 -122.5t121.5 -50.5z" />
    <glyph glyph-name="c" unicode="c" horiz-adv-x="524" 
d="M474 281h-64q-5 52 -40.5 83t-97.5 31q-78 0 -119.5 -50t-41.5 -123q0 -74 41.5 -124t121.5 -50q115 0 137 104h65q-11 -73 -64.5 -118t-139.5 -45q-107 0 -166 68t-59 165t59 164.5t166 67.5q93 0 145 -51t57 -122z" />
    <glyph glyph-name="d" unicode="d" horiz-adv-x="592" 
d="M444 0v94q-22 -47 -67.5 -76t-107.5 -29q-97 0 -161.5 68t-64.5 164t64 164t161 68q60 0 106.5 -27.5t69.5 -77.5v352h65v-700h-65zM276 48q75 0 121.5 50.5t46.5 122.5q0 73 -47 123.5t-121 50.5q-75 0 -121.5 -50.5t-46.5 -123.5q0 -72 46.5 -122.5t121.5 -50.5z" />
    <glyph glyph-name="e" unicode="e" horiz-adv-x="519" 
d="M466 208h-354q1 -71 40.5 -117t113.5 -46q102 0 132 82h65q-13 -58 -65.5 -98t-132.5 -40q-104 0 -161 68t-57 167q0 100 58 164.5t154 64.5q91 0 150.5 -56.5t59.5 -141.5q0 -27 -3 -47zM260 398q-62 0 -102.5 -38t-44.5 -102h293q0 62 -41 101t-105 39z" />
    <glyph glyph-name="f" unicode="f" horiz-adv-x="335" 
d="M326 695v-56q-24 9 -53 9q-18 0 -30.5 -3t-26.5 -12.5t-21 -31t-7 -53.5v-105h138v-56h-138v-387h-65v387h-100v56h100v99q0 53 13.5 88.5t37 50.5t43 20t44.5 5q39 0 65 -11z" />
    <glyph glyph-name="g" unicode="g" horiz-adv-x="590" 
d="M276 395q-75 0 -121.5 -50.5t-46.5 -122.5q0 -73 46.5 -123.5t121.5 -50.5q74 0 121 50.5t47 123.5q0 72 -46.5 122.5t-121.5 50.5zM509 443v-478q0 -233 -230 -233q-115 0 -169.5 56t-60.5 148h65q12 -145 163 -145q167 0 167 174v130q-22 -47 -67.5 -76.5t-107.5 -29.5
q-97 0 -161.5 68.5t-64.5 164.5t64.5 163.5t161.5 67.5q62 0 107.5 -28.5t67.5 -75.5v94h65z" />
    <glyph glyph-name="h" unicode="h" horiz-adv-x="562" 
d="M83 0v700h65v-354q20 48 64 77.5t106 29.5q86 0 131 -55q39 -48 39 -138v-260h-65v241q0 69 -31.5 111.5t-95.5 42.5q-71 0 -109.5 -50t-38.5 -118v-227h-65z" />
    <glyph glyph-name="i" unicode="i" horiz-adv-x="253" 
d="M94 0v443h65v-443h-65zM67 616q0 25 17 42.5t42 17.5q26 0 43 -17t17 -43q0 -25 -17.5 -42t-42.5 -17t-42 17t-17 42z" />
    <glyph glyph-name="j" unicode="j" horiz-adv-x="254" 
d="M161 443v-578q0 -130 -106 -130q-39 0 -66 12v56q28 -11 47 -11q60 0 60 76v575h65zM70 616q0 25 17 42.5t42 17.5t42.5 -17.5t17.5 -42.5t-17.5 -42t-42.5 -17t-42 17t-17 42z" />
    <glyph glyph-name="k" unicode="k" horiz-adv-x="455" 
d="M441 443l-220 -222l220 -221h-85l-208 207v-207h-65v700h65v-465l208 208h85z" />
    <glyph glyph-name="l" unicode="l" horiz-adv-x="231" 
d="M83 0v700h65v-700h-65z" />
    <glyph glyph-name="m" unicode="m" horiz-adv-x="812" 
d="M736 0h-64v261q0 68 -28.5 101t-76.5 33q-59 0 -92 -46t-33 -124v-225h-64v249q0 146 -104 146q-59 0 -92.5 -46.5t-33.5 -123.5v-225h-65v443h65v-97q13 46 49.5 76.5t94.5 30.5q55 0 92 -29t47 -81q15 46 53.5 78t100.5 32q71 0 111 -45.5t40 -128.5v-279z" />
    <glyph glyph-name="n" unicode="n" horiz-adv-x="562" 
d="M83 0v443h65v-97q20 48 64 77.5t106 29.5q86 0 131 -55q39 -48 39 -138v-260h-65v241q0 69 -31.5 111.5t-95.5 42.5q-71 0 -109.5 -50t-38.5 -118v-227h-65z" />
    <glyph glyph-name="o" unicode="o" horiz-adv-x="552" 
d="M276 -11q-104 0 -168.5 67.5t-64.5 164.5t65 164.5t168 67.5t168 -67.5t65 -164.5t-65 -164.5t-168 -67.5zM276 48q75 0 121.5 50.5t46.5 122.5q0 73 -47 123.5t-121 50.5q-75 0 -121.5 -50.5t-46.5 -123.5q0 -72 46.5 -122.5t121.5 -50.5z" />
    <glyph glyph-name="p" unicode="p" horiz-adv-x="593" 
d="M148 443v-94q22 47 67.5 75.5t107.5 28.5q97 0 161.5 -67.5t64.5 -163.5t-64.5 -164.5t-161.5 -68.5q-62 0 -107.5 29.5t-67.5 76.5v-353h-65v701h65zM316 395q-75 0 -121.5 -50.5t-46.5 -122.5q0 -73 47 -123.5t121 -50.5q75 0 121.5 50.5t46.5 123.5q0 72 -46.5 122.5
t-121.5 50.5z" />
    <glyph glyph-name="q" unicode="q" horiz-adv-x="593" 
d="M445 349v94h65v-701h-65v353q-22 -47 -67.5 -76.5t-107.5 -29.5q-97 0 -161.5 68.5t-64.5 164.5t64.5 163.5t161.5 67.5q62 0 107.5 -28.5t67.5 -75.5zM277 395q-75 0 -121.5 -50.5t-46.5 -122.5q0 -73 46.5 -123.5t121.5 -50.5q74 0 121 50.5t47 123.5q0 72 -46.5 122.5
t-121.5 50.5z" />
    <glyph glyph-name="r" unicode="r" horiz-adv-x="353" 
d="M348 442v-59q-21 5 -39 5q-80 0 -120.5 -54t-40.5 -137v-197h-65v443h65v-105q19 52 62.5 81.5t95.5 29.5q27 0 42 -7z" />
    <glyph glyph-name="s" unicode="s" horiz-adv-x="450" 
d="M255 248q65 -12 105 -40.5t40 -88.5q0 -62 -45.5 -96t-122.5 -34q-83 0 -135.5 41t-52.5 120h63q0 -107 125 -107q51 0 78.5 18.5t27.5 53.5q0 13 -4 23.5t-13 18.5t-17 13.5t-24 10t-26.5 7t-31 7t-30.5 6.5q-28 7 -48 14.5t-41.5 21t-32.5 36t-11 53.5q0 62 45 94.5
t115 32.5q78 0 126 -40t48 -107h-63q0 45 -28.5 69.5t-80.5 24.5q-45 0 -72.5 -19t-27.5 -54q0 -36 30 -51t104 -28z" />
    <glyph glyph-name="t" unicode="t" horiz-adv-x="329" 
d="M319 58v-58q-34 -6 -76 -6q-26 0 -45.5 4.5t-41.5 18.5t-34 47.5t-12 83.5v239h-90v56h90v164h64v-164h129v-56h-129v-226q0 -65 21 -86.5t60 -21.5q24 0 64 5z" />
    <glyph glyph-name="u" unicode="u" horiz-adv-x="560" 
d="M413 443h64v-443h-64v97q-20 -48 -63.5 -78t-105.5 -30q-88 0 -133 56q-38 47 -38 138v260h64v-241q0 -69 31.5 -111.5t95.5 -42.5q71 0 110 50t39 118v227z" />
    <glyph glyph-name="v" unicode="v" horiz-adv-x="470" 
d="M8 443h69l157 -352l159 352h70l-206 -443h-46z" />
    <glyph glyph-name="w" unicode="w" horiz-adv-x="714" 
d="M489 0l-132 371l-131 -371h-47l-171 443h69l125 -345l123 345h64l123 -345l125 345h69l-171 -443h-46z" />
    <glyph glyph-name="x" unicode="x" horiz-adv-x="434" 
d="M254 222l157 -222h-75l-119 172l-119 -172h-75l156 222l-154 221h75l117 -170l117 170h75z" />
    <glyph glyph-name="y" unicode="y" horiz-adv-x="568" 
d="M282 -268q-201 0 -206 202h63q2 -69 34.5 -106t108.5 -37q73 0 107.5 38.5t34.5 128.5v139q-46 -108 -172 -108q-85 0 -131 54q-37 45 -37 145v255h64v-236q0 -159 125 -159q75 0 113 49.5t38 118.5v227h64v-485q0 -117 -52 -171.5t-154 -54.5z" />
    <glyph glyph-name="z" unicode="z" horiz-adv-x="431" 
d="M37 443h367l-266 -384h267v-59h-379l266 384h-255v59z" />
  </font>
</defs>
</svg>
